<svg width="64" height="64" viewBox="0 0 64 64" fill="none" xmlns="http://www.w3.org/2000/svg">
<path d="M31.9 63.8C49.5179 63.8 63.8 49.5179 63.8 31.9C63.8 14.2821 49.5179 0 31.9 0C14.2821 0 0 14.2821 0 31.9C0 49.5179 14.2821 63.8 31.9 63.8Z" transform="translate(0.100098 0.100098)" fill="#ED2C24"/>
<path d="M0.532002 10.1413C0.232002 10.1413 0.0320015 9.94129 0.0320015 9.64129C0.0320015 9.44129 -0.168001 5.74129 0.431999 3.94129C0.531999 3.64129 1.032 1.7413 2.832 0.641296C2.932 0.541296 3.032 0.541295 3.132 0.441295C4.832 -0.358705 6.932 -0.0587038 8.332 1.2413C9.232 2.0413 10.232 3.4413 10.832 4.4413C11.932 6.3413 13.932 8.84129 19.032 8.84129C19.132 8.84129 21.232 9.0413 23.632 7.7413C23.832 7.6413 24.132 7.7413 24.232 7.9413C24.332 8.1413 24.232 8.4413 24.032 8.5413C21.432 9.9413 19.032 9.7413 18.932 9.7413C14.732 9.7413 11.832 8.14129 9.932 4.84129C9.432 3.94129 8.432 2.6413 7.632 1.9413C6.532 0.941295 4.832 0.641296 3.532 1.2413C3.432 1.2413 3.332 1.34129 3.332 1.34129C1.832 2.24129 1.332 4.0413 1.332 4.0413C0.732001 5.6413 0.931999 9.34129 0.931999 9.34129C1.032 9.94129 0.832002 10.1413 0.532002 10.1413C0.532002 10.1413 0.632002 10.1413 0.532002 10.1413Z" transform="translate(35.3682 26.9587)" fill="white"/>
<path d="M10.0266 -1.52588e-06C9.4266 -1.52588e-06 4.3266 0.1 3.2266 0.4C2.5266 0.6 1.1266 0.300001 0.626598 0.100001C0.426598 7.59959e-07 0.126599 0.2 0.0265994 0.4C-0.0734006 0.6 0.126599 0.899998 0.326599 0.999998C0.426599 0.999998 1.5266 1.4 2.6266 1.4C2.9266 1.4 3.1266 1.4 3.4266 1.3C4.2266 1.1 8.4266 1 10.0266 0.9C10.3266 0.9 10.5266 0.7 10.4266 0.4C10.4266 0.2 10.2266 -1.52588e-06 10.0266 -1.52588e-06Z" transform="translate(40.6738 47.1001)" fill="#201C1B"/>
<path d="M7.7375 2.5853C5.1375 -0.714701 0.5375 0.0852986 0.3375 0.0852986C0.0374998 0.185299 -0.0625004 0.385299 0.0374996 0.585299C0.1375 0.785299 0.3375 0.985298 0.5375 0.885298C0.6375 0.885298 4.7375 0.0852962 7.0375 2.9853C7.2375 3.2853 7.4375 3.4853 7.7375 3.6853C7.8375 3.7853 7.9375 3.7853 8.0375 3.7853C8.1375 3.7853 8.3375 3.6853 8.3375 3.6853C8.5375 3.4853 8.4375 3.1853 8.3375 3.0853C8.1375 2.9853 7.9375 2.7853 7.7375 2.5853Z" transform="translate(14.3628 47.1147)" fill="white"/>
<path d="M1.52588e-06 0.799998C1.52588e-06 1.1 0.200002 1.3 0.500002 1.3C0.800002 1.3 1 1.1 1 0.799998V-7.62939e-07L1.52588e-06 0.799998Z" transform="translate(32.9004 37.3)" fill="white"/>
<path d="M0.200002 0.7C0.300002 0.9 0.399999 0.999999 0.599999 0.999999C0.699999 0.999999 0.700002 0.999999 0.700002 0.999999C0.900002 0.899999 1.1 0.700001 1 0.400001L0.899998 -7.62939e-07C0.399998 0.0999992 7.62939e-07 0.2 7.62939e-07 0.2L0.200002 0.7Z" transform="translate(36.7002 35.8)" fill="white"/>
<path d="M16.3 1L15.4 0.5C14.8 0.3 14.1 0.1 13.2 0H12.2C11.4 0 10.6 0.200002 9.8 0.400002L8.5 0.700001C8.4 0.700001 8.2 0.799999 8.1 0.799999L6.8 1.2C5.9 1.5 5 1.7 4.4 1.8C3.6 1.9 3.2 2 2.9 2C1.8 2 1.3 2.1 0.5 2.1C0.2 2.1 0 2.3 0 2.6C0 2.9 0.2 3.1 0.5 3.1C3.9 3.1 6.2 2.4 8.3 1.7C9.8 1.2 11.1 0.900002 12.5 0.900002C15.3 0.900002 16.7 2.3 16.8 2.3L17.7 3.2C17.8 3.3 17.9 3.3 18 3.3C18.1 3.3 18.2 3.2 18.3 3.2C18.5 3 18.5 2.7 18.3 2.6L18.1 2.4V2.3L17.2 1.5C16.9 1.5 16.7 1.3 16.3 1Z" transform="translate(14.5005 36)" fill="white"/>
<path d="M9.41547 6.05L9.21547 5.95C8.91547 5.65 5.71547 2.55 3.31547 0.149998C3.11547 -0.0500015 2.81547 -0.0500015 2.71547 0.149998C2.51547 0.349998 2.51547 0.650001 2.71547 0.750001C5.11547 3.15 8.31547 6.25 8.61547 6.55L8.71547 6.65C9.21547 7.15 10.4155 8.25 10.4155 9.15C10.4155 9.35 10.3155 9.55 10.1155 9.75C9.81547 9.95 9.61547 10.05 9.31547 10.05C8.71547 10.05 8.11547 9.55 8.01547 9.35C7.71547 9.05 7.51547 8.85 7.31547 8.65C7.21547 8.55 7.11547 8.55 7.11547 8.45L5.11547 6.55L4.51547 7.15L6.51547 9.05C6.61547 9.15 6.61547 9.15 6.81547 9.25C7.21547 9.65 8.21547 10.45 8.21547 11.15C8.21547 11.35 8.11547 11.45 8.01547 11.55C7.81547 11.75 7.61547 11.85 7.31547 11.85C6.81547 11.85 6.41547 11.35 6.21547 11.25C6.11547 11.05 5.91547 10.95 5.81547 10.75L3.51547 8.45L2.91547 9.05L5.21547 11.35C5.61547 11.75 5.81547 12.05 5.91547 12.35C6.01547 12.65 5.91547 12.85 5.61547 13.15C5.11547 13.55 4.51547 13.25 4.31547 13.15C4.21547 12.95 4.11547 12.85 3.91547 12.65C3.41547 12.15 2.01547 10.55 1.91547 10.55C1.71547 10.35 1.41547 10.35 1.31547 10.55C1.11547 10.75 1.11547 11.05 1.31547 11.15C1.41547 11.25 2.71547 12.75 3.31547 13.25C3.51547 13.45 3.71547 13.75 3.71547 14.05C3.81547 14.35 3.71547 14.55 3.41547 14.75C3.41547 15.05 3.21547 15.05 3.11547 15.05C2.81547 15.05 2.11547 14.85 0.71547 13.45C0.51547 13.25 0.21547 13.25 0.11547 13.45C0.0154697 13.65 -0.0845303 13.95 0.11547 14.05C1.31547 15.25 2.31547 15.95 3.11547 15.95C3.51547 15.95 3.81547 15.85 4.11547 15.55C4.41547 15.25 4.61547 14.75 4.61547 14.35C4.71547 14.35 4.91547 14.45 5.11547 14.45C5.51547 14.45 5.91547 14.35 6.31547 13.95C6.61547 13.65 6.81547 13.25 6.91547 12.75C7.01547 12.85 7.21547 12.85 7.41547 12.85H7.51547C8.01547 12.85 8.41547 12.65 8.71547 12.35C9.01547 12.05 9.21547 11.65 9.21547 11.25C9.21547 11.15 9.21547 11.05 9.11547 10.95C9.21547 10.95 9.31547 10.95 9.51547 10.95C10.0155 10.95 10.5155 10.75 10.9155 10.35C11.2155 10.05 11.4155 9.65 11.4155 9.15C11.3155 7.95 9.91547 6.65 9.41547 6.05Z" transform="translate(31.7847 40.95)" fill="white"/>
<path d="M10.1286 4.8C10.0286 4.8 9.82863 4.8 9.72863 4.9C9.92863 4.6 10.0286 4.2 10.0286 3.9C10.0286 3.4 9.82863 3.1 9.52863 2.7C9.22863 2.4 8.92863 2.3 8.52863 2.3C8.32863 2.3 8.02863 2.4 7.82863 2.4C7.82863 1.9 7.52863 1.5 7.32863 1.3C6.62863 0.599999 5.82863 0.799999 5.02863 1.3V1.2C5.02863 0.8 4.92863 0.499998 4.62863 0.299998C4.42863 0.0999985 4.12863 -7.62939e-07 3.82863 -7.62939e-07C3.02863 -7.62939e-07 2.32863 0.699998 1.82863 1.3L1.72863 1.4C1.42863 1.7 0.828634 2.3 0.428634 3C-0.271366 4.1 0.0286335 4.8 0.328634 5.1C0.628634 5.4 0.828633 5.5 1.22863 5.5C1.32863 5.5 1.52863 5.5 1.72863 5.4C1.52863 6 1.62863 6.5 2.02863 6.9C2.32863 7.2 2.72863 7.4 3.22863 7.4C3.42863 7.4 3.52863 7.4 3.72863 7.3C3.62863 7.8 3.72863 8.2 4.12863 8.6C4.42863 8.9 4.82863 9.1 5.12863 9.1C5.62863 9.1 6.02863 8.9 6.42863 8.6C6.32863 9.1 6.42863 9.5 6.72863 9.8C6.92863 10.1 7.22863 10.2 7.52863 10.2C8.82863 10.2 10.6286 8.2 11.1286 6.9C11.5286 6 11.2286 5.5 11.0286 5.3C10.8286 5 10.5286 4.8 10.1286 4.8ZM1.22863 4.5C1.12863 4.5 1.12863 4.5 0.928634 4.4C0.728634 4.2 0.928633 3.7 1.12863 3.4C1.42863 2.8 1.92863 2.3 2.22863 2L2.32863 1.9C2.72863 1.5 3.32863 0.900001 3.72863 0.900001C3.82863 0.900001 3.82863 0.899999 3.92863 0.999999C4.02863 1.1 4.02863 1.2 4.02863 1.3C4.02863 1.8 3.32863 2.7 2.72863 3.4L2.52863 3.6C2.32863 3.8 1.72863 4.5 1.22863 4.5ZM2.62863 6.2C2.12863 5.7 3.12863 4.2 4.22863 3.1C5.42863 1.9 6.12863 1.6 6.62863 2C6.82863 2.1 7.12863 2.5 6.52863 3.3C6.22863 3.5 6.02863 3.8 5.82863 4C5.32863 4.5 4.62863 5.3 4.12863 6C3.82863 6.3 3.12863 6.7 2.62863 6.2ZM7.02863 6.8C6.52863 7.3 5.72863 8.2 5.02863 8.2C4.92863 8.2 4.72863 8.1 4.62863 8C4.02863 7.4 5.12863 5.9 6.32863 4.7C6.52863 4.5 6.82863 4.3 7.02863 4C7.52863 3.6 8.02863 3.3 8.32863 3.3C8.42863 3.3 8.52863 3.4 8.62863 3.4C8.82863 3.6 8.92863 3.7 8.92863 4C8.92863 4.9 7.72863 6.1 7.22863 6.5L7.12863 6.6C7.22863 6.6 7.12863 6.7 7.02863 6.8ZM10.3286 6.5C9.82863 7.7 8.22863 9.2 7.52863 9.2C7.42863 9.2 7.42863 9.2 7.32863 9.1C7.02863 8.7 7.52863 7.6 8.72863 6.5C9.22863 6 9.72863 5.7 10.1286 5.7C10.2286 5.7 10.3286 5.7 10.4286 5.8C10.5286 5.9 10.5286 6.1 10.3286 6.5Z" transform="translate(21.6719 47.3)" fill="#201C1B"/>
<path d="M0.532001 13.5366C0.232001 13.5366 0.0320008 13.3366 0.0320008 13.0366C0.0320008 12.8366 -0.168002 7.73659 0.431998 5.43659C0.431998 5.33659 1.232 2.33659 3.732 0.936585C6.032 -0.363415 8.532 0.0365841 8.832 0.136584C9.232 0.136584 12.432 0.536585 14.532 4.43659C15.732 7.23659 18.432 8.43658 18.432 8.43658C18.432 8.43658 21.532 9.83659 25.732 7.83659C25.932 7.73659 26.232 7.83659 26.332 8.03659C26.432 8.23659 26.332 8.53658 26.132 8.63658C21.632 10.7366 18.232 9.33659 18.032 9.23659C17.932 9.23659 15.032 7.93658 13.632 4.83659C11.632 1.23659 8.732 1.03659 8.632 1.03659H8.532C8.532 1.03659 6.132 0.536584 4.032 1.73658C1.932 2.93658 1.232 5.63658 1.232 5.63658C0.632002 7.93658 0.832 12.9366 0.832 13.0366C1.032 13.3366 0.832001 13.5366 0.532001 13.5366Z" transform="translate(33.168 24.6636)" fill="white"/>
<path d="M22.2163 2.6C20.5163 2.6 17.7163 2.4 17.0163 1.8C16.6163 1.5 16.1163 1.1 15.5163 0.899998C14.5163 0.399998 13.3163 7.62939e-07 11.9163 7.62939e-07C10.0163 7.62939e-07 8.31633 0.300002 7.01633 0.700002C6.91633 0.700002 6.81633 0.8 6.71633 0.8C6.31633 1 5.91632 1.2 5.61632 1.5C5.51632 1.5 5.51633 1.6 5.41633 1.6C5.31633 1.7 5.11633 1.8 4.91633 2C3.21633 3.2 0.0163265 5.5 0.0163265 7.9C0.0163265 8.2 -0.183674 10.3 0.816326 11.4C1.21633 11.8 1.61633 12 2.21633 12C2.71633 12 3.11633 11.8 3.41633 11.5C4.11633 10.8 4.01633 9.7 3.91633 8.7C3.91633 8.3 3.81633 7.8 3.91633 7.7C4.41633 7 5.51633 6.1 6.31633 6.1C6.61633 6.1 6.81633 5.9 6.81633 5.6C6.81633 5.3 6.61633 5.1 6.31633 5.1C5.01633 5.1 3.61633 6.5 3.21633 7.1C2.91633 7.4 3.01633 7.9 3.01633 8.7C3.01633 9.4 3.11633 10.5 2.71633 10.8C2.61633 10.9 2.51633 11 2.11633 11C1.81633 11 1.51633 10.9 1.31633 10.7C0.716326 10 0.616327 8.4 0.716327 7.9C0.716327 6 3.81633 3.8 5.31633 2.7C5.61633 2.5 5.91633 2.3 6.01633 2.2C7.01633 1.4 9.11633 0.899998 11.7163 0.899998C13.7163 0.899998 15.3163 1.8 16.3163 2.5C17.6163 3.4 21.6163 3.5 22.1163 3.5C22.4163 3.5 22.6163 3.3 22.6163 3C22.6163 2.8 22.4163 2.6 22.2163 2.6Z" transform="translate(28.4839 35.7002)" fill="#201C1B"/>
<path d="M8.03923 6.93055C5.83923 6.93055 5.03923 6.13056 4.53923 5.63056C4.43923 5.53056 4.43923 5.53055 4.33923 5.43055C4.23923 5.33055 4.13923 5.23056 4.03923 5.13056C3.83923 4.93056 3.23923 4.33056 3.03923 4.23056C2.33923 3.83056 1.63923 3.53056 0.63923 4.13056C0.43923 4.23056 0.139231 4.13055 0.0392306 3.93055C-0.0607694 3.73055 0.0392304 3.43056 0.23923 3.33056C1.63923 2.63056 2.63923 3.03055 3.53923 3.43055C3.73923 3.53055 4.13923 3.83055 4.73923 4.43055C4.83923 4.53055 4.93923 4.63056 5.03923 4.73056C5.13923 4.83056 5.13923 4.83055 5.23923 4.93055C5.73923 5.43055 6.33923 6.03055 8.53923 5.93055C11.8392 5.73055 14.8392 2.53055 14.8392 2.43055C17.0392 -0.0694451 19.3392 -0.0694448 19.7392 0.0305552C23.1392 -0.169445 24.8392 3.13055 25.2392 4.93055C25.3392 5.23055 25.1392 5.43056 24.9392 5.53056C24.6392 5.63056 24.4392 5.43056 24.3392 5.23056C24.3392 5.03056 23.1392 0.830555 19.7392 1.03056C19.6392 1.03056 17.6392 0.830556 15.6392 3.13056C15.5392 3.33056 12.3392 6.73055 8.63923 6.93055C8.33923 6.93055 8.13923 6.93055 8.03923 6.93055Z" transform="translate(4.36084 25.3696)" fill="white"/>
<path d="M22 23.7C21.7 23.7 21.5 23.5 21.5 23.2V11.3C21.5 11.1 21.1 5.8 16.2 4.3C16.2 4.3 13 3 9.4 4.6C4.9 6.5 2.4 4.8 2.1 4.5C1.8 4.3 0.3 3.2 3.8147e-07 0.5C3.8147e-07 0.2 0.2 1.90735e-07 0.4 1.90735e-07C0.7 1.90735e-07 0.9 0.2 0.9 0.4C1.1 2.9 2.5 3.7 2.5 3.7H2.6C2.7 3.8 4.9 5.5 9 3.7C12.9 2 16.2 3.3 16.6 3.4C22.1 5.1 22.5 11.3 22.5 11.3V23.2C22.5 23.4 22.3 23.7 22 23.7Z" transform="translate(9.6001 14.8)" fill="white"/>
<path d="M21.4392 19.4392C21.1392 19.4392 20.9392 19.2392 20.9392 18.9392V8.83923C20.9392 8.53923 20.4392 5.43923 18.2392 4.53923H18.1392C18.1392 4.53923 16.3392 3.53923 14.5392 3.63923C12.7392 3.73923 10.9392 4.63923 10.8392 4.63923C10.7392 4.63923 9.13923 5.53923 7.33923 5.53923C5.13923 5.63923 2.03923 5.33923 0.0392303 0.63923C-0.0607697 0.43923 0.0392306 0.13923 0.239231 0.0392301C0.439231 -0.0607699 0.73923 0.0392309 0.83923 0.239231C2.53923 4.23923 5.13923 4.63923 7.23923 4.53923C8.83923 4.53923 10.3392 3.73923 10.3392 3.73923C10.4392 3.73923 12.3392 2.73923 14.3392 2.53923C16.3392 2.43923 18.1392 3.33923 18.4392 3.53923C21.2392 4.63923 21.7392 8.43923 21.7392 8.63923V8.73923V18.9392C21.9392 19.2392 21.7392 19.4392 21.4392 19.4392Z" transform="translate(7.66064 17.3608)" fill="white"/>
<path d="M0.5 26.809C0.2 26.809 3.8147e-07 26.609 3.8147e-07 26.309C3.8147e-07 26.209 0.100001 23.709 1.1 21.809L1.3 21.609C1.9 20.709 2.6 19.609 4.9 18.809C6.7 18.209 7.7 16.609 7.6 14.609C7.5 12.509 5.9 11.109 5.3 10.709C5.2 10.609 5.1 10.609 5 10.509C4.8 10.409 4.6 10.209 4.4 10.009C0.5 5.80902 4.2 0.309017 4.2 0.209017C4.3 0.0090168 4.6 -0.0909831 4.9 0.109017C5.1 0.209017 5.2 0.509017 5 0.809017C4.9 1.00902 1.7 5.80902 5.1 9.40902C5.2 9.50902 5.4 9.60902 5.5 9.70902C5.6 9.80902 5.7 9.80902 5.8 9.90902C6.4 10.409 8.3 11.909 8.4 14.509C8.5 17.009 7.3 18.909 5 19.709C3 20.309 2.5 21.209 1.9 22.109V22.309C1 24.009 0.9 26.309 0.9 26.309C0.9 26.609 0.7 26.809 0.5 26.809Z" transform="translate(31.1001 4.49097)" fill="white"/>
<path d="M1.66083 21.1598C1.46083 21.1598 1.26083 21.0598 1.16083 20.8598C1.06083 20.6598 1.16083 20.3598 1.46083 20.2598C1.56083 20.2598 4.36082 19.1598 5.06082 16.0598C5.06082 16.0598 5.56082 13.7598 4.56082 11.6598C3.56082 9.35981 1.66082 8.15981 1.56082 8.15981C1.46082 8.05981 0.260825 7.25981 0.060825 5.75981C-0.339175 3.15981 1.36083 0.359808 1.46083 0.259808C1.66083 -0.0401922 1.96083 -0.0401925 2.16083 0.0598075C2.36083 0.159808 2.46083 0.459808 2.26083 0.759808C2.26083 0.759808 0.660825 3.35981 1.06082 5.55981C1.26082 6.65981 2.16083 7.25981 2.16083 7.25981C2.26083 7.25981 4.36083 8.65981 5.46083 11.1598C6.46083 13.6598 5.96083 16.0598 5.96083 16.1598C5.26083 19.8598 1.86083 21.0598 1.76083 21.0598C1.76083 21.1598 1.76083 21.1598 1.66083 21.1598Z" transform="translate(36.2393 5.04028)" fill="white"/>
<path d="M9.63923 3.8266C9.43923 3.8266 9.23923 3.8266 9.13923 3.8266C7.43923 3.7266 6.43923 3.0266 5.73923 2.5266C4.83923 1.8266 4.23923 1.6266 3.83923 1.6266C1.83923 1.6266 0.83923 3.3266 0.83923 3.4266C0.73923 3.6266 0.439231 3.7266 0.239231 3.6266C0.0392312 3.5266 -0.0607695 3.2266 0.0392305 3.0266C0.13923 2.9266 1.33923 0.726599 3.83923 0.726599C4.43923 0.726599 5.33923 1.1266 6.23923 1.8266C6.93923 2.3266 7.73923 2.8266 9.13923 2.9266C10.5392 3.0266 12.9392 2.8266 13.9392 0.326599C14.0392 0.126599 14.3392 -0.0734018 14.5392 0.0265983C14.7392 0.126598 14.9392 0.426599 14.8392 0.626599C13.7392 3.3266 11.1392 3.8266 9.63923 3.8266Z" transform="translate(41.4609 17.8735)" fill="white"/>
<path d="M9.63923 3.33333C8.53923 3.33333 7.43923 2.53333 7.33923 2.43333C7.33923 2.43333 6.03923 1.33333 4.73923 1.03333C3.73923 0.833333 2.93923 1.03333 2.93923 1.03333C1.33923 1.43333 0.83923 2.23333 0.83923 2.23333C0.73923 2.43333 0.439231 2.53333 0.239231 2.43333C0.0392312 2.33333 -0.0607695 2.03333 0.0392305 1.83333C0.13923 1.73333 0.739231 0.633333 2.73923 0.133333C2.73923 0.133333 3.63923 -0.166667 4.93923 0.133333C6.43923 0.433333 7.83923 1.63333 7.93923 1.73333C8.13923 1.93333 8.93923 2.43333 9.63923 2.43333C10.3392 2.43333 10.6392 2.33333 11.2392 1.93333C11.7392 1.63333 12.2392 0.633334 12.4392 0.333334C12.5392 0.133334 12.8392 0.0333333 13.0392 0.133333C13.2392 0.233333 13.3392 0.533334 13.2392 0.733334C13.1392 0.933334 12.5392 2.23333 11.7392 2.73333C11.0392 3.13333 10.5392 3.33333 9.63923 3.33333Z" transform="translate(41.4609 15.8667)" fill="white"/>
<path d="M0.837501 7.50902C0.637501 7.50902 0.437501 7.40902 0.337501 7.20902C0.337501 7.10902 -0.2625 5.30902 0.1375 3.10902C0.4375 1.10902 1.6375 0.109017 1.7375 0.109017C1.9375 -0.0909834 2.2375 0.00901699 2.4375 0.209017C2.6375 0.409017 2.5375 0.709018 2.3375 0.909018C2.3375 0.909018 1.3375 1.80902 1.1375 3.40902C0.8375 5.40902 1.3375 7.10902 1.3375 7.10902C1.4375 7.40902 1.2375 7.60902 1.0375 7.70902C0.937502 7.50902 0.837501 7.50902 0.837501 7.50902Z" transform="translate(56.3628 26.291)" fill="white"/>
<path d="M0.842998 10.6657C0.642998 10.6657 0.442998 10.5657 0.342998 10.3657C0.342998 10.2657 -0.357 8.06569 0.243 4.86569C0.843 1.46569 2.843 0.165686 2.943 0.0656862C3.143 -0.0343138 3.443 -0.0343153 3.643 0.165685C3.743 0.365685 3.743 0.665685 3.543 0.865685C3.543 0.865685 1.743 2.06569 1.243 4.96569C0.743 7.86569 1.343 10.0657 1.343 10.0657C1.443 10.3657 1.243 10.5657 1.043 10.6657C0.942999 10.6657 0.942998 10.6657 0.842998 10.6657Z" transform="translate(54.2573 23.6345)" fill="white"/>
<path d="M1.10902 15.409C1.00902 15.409 0.909017 15.409 0.809017 15.309C0.609017 15.109 0.609017 14.809 0.809017 14.609C0.809017 14.609 2.00902 13.309 2.10902 11.009C2.10902 10.909 3.00902 4.50902 0.109017 0.809017C-0.0909834 0.609017 0.00901699 0.309017 0.209017 0.109017C0.409017 -0.0909831 0.709018 0.0090168 0.909018 0.209017C4.00902 4.10902 3.20902 10.609 3.10902 11.109C3.00902 13.709 1.60902 15.209 1.60902 15.209C1.30902 15.309 1.20902 15.409 1.10902 15.409Z" transform="translate(26.791 4.49097)" fill="white"/>
<path d="M0.809016 17.309C0.709016 17.309 0.609017 17.309 0.509017 17.209C0.309017 17.009 0.309017 16.709 0.509017 16.509C0.509017 16.509 1.60902 15.309 2.00902 13.309C3.10902 7.50902 1.50902 2.60902 0.109017 0.809017C-0.0909826 0.609017 0.00901775 0.309017 0.209018 0.109017C0.409018 -0.0909832 0.709017 0.00901718 0.909017 0.209017C2.40902 2.20902 4.10902 7.40902 2.90902 13.509C2.50902 15.809 1.20902 17.109 1.10902 17.209C1.00902 17.309 0.909016 17.309 0.809016 17.309Z" transform="translate(28.9912 4.09106)" fill="white"/>
<path d="M11.2375 6.7375C10.8375 6.7375 2.2375 6.6375 0.0374996 0.6375C-0.0625004 0.4375 0.0375007 0.1375 0.337501 0.0374998C0.537501 -0.0625002 0.837499 0.0375 0.937499 0.3375C2.9375 5.7375 11.2375 5.7375 11.3375 5.7375C11.6375 5.7375 11.8375 5.9375 11.8375 6.2375C11.7375 6.5375 11.5375 6.7375 11.2375 6.7375Z" transform="translate(17.8628 7.6626)" fill="white"/>
<path d="M0.5 1.53923C0.5 1.53923 0.4 1.53923 0.5 1.53923C0.2 1.53923 0 1.33923 0 1.03923C0 0.73923 0.2 0.53923 0.5 0.53923C0.5 0.53923 2.5 0.53923 3.6 0.0392303C3.8 -0.0607697 4.1 0.0392301 4.2 0.23923C4.3 0.43923 4.2 0.73923 4 0.83923C2.7 1.53923 0.6 1.53923 0.5 1.53923Z" transform="translate(31.5 12.6609)" fill="white"/>
<path d="M0.7 2.03923C0.6 2.03923 0.500001 2.03923 0.500001 2.03923C0.200001 2.03923 7.62939e-07 1.83923 7.62939e-07 1.53923C7.62939e-07 1.23923 0.200001 1.03923 0.500001 1.03923C0.500001 1.03923 3.6 1.13923 5.6 0.0392309C5.8 -0.0607691 6.1 0.0392307 6.2 0.239231C6.3 0.439231 6.2 0.73923 6 0.83923C4.2 1.93923 1.5 2.03923 0.7 2.03923Z" transform="translate(31.2002 14.5608)" fill="white"/>
<path d="M0.43923 6.4C0.23923 6.4 0.139229 6.3 0.039229 6.2C-0.060771 6 0.0392297 5.7 0.23923 5.6C0.23923 5.6 3.63923 3.6 4.23923 0.4C4.23923 0.1 4.53923 -9.53674e-08 4.83923 -9.53674e-08C5.13923 -9.53674e-08 5.23923 0.3 5.23923 0.6C4.63923 4.3 0.93923 6.4 0.73923 6.4C0.53923 6.3 0.43923 6.4 0.43923 6.4Z" transform="translate(37.061 6.1001)" fill="white"/>
<path d="M0.437499 6.92601C0.237499 6.92601 0.0375015 6.82601 0.0375015 6.62601C-0.0624985 6.42601 0.0375007 6.12601 0.337501 6.02601C0.337501 6.02601 3.6375 4.52601 4.6375 0.426013C4.6375 0.126013 4.9375 -0.0739871 5.1375 0.0260129C5.4375 0.126013 5.5375 0.326013 5.5375 0.626013C4.4375 5.22601 0.8375 6.82601 0.6375 6.82601C0.5375 6.82601 0.537499 6.92601 0.437499 6.92601Z" transform="translate(38.8628 7.07397)" fill="white"/>
<path d="M0.532655 7.90902C0.332655 7.90902 0.132655 7.70902 0.0326546 7.50902C0.0326546 7.30902 -0.367347 3.20902 1.63265 0.209017C1.73265 0.0090166 2.03265 -0.0909828 2.33265 0.109017C2.53265 0.209017 2.63265 0.509017 2.43265 0.809017C0.632652 3.40902 1.03265 7.30902 1.03265 7.30902C1.03265 7.60902 0.832655 7.80902 0.532655 7.90902Z" transform="translate(44.3677 8.69116)" fill="white"/>
<path d="M0.540962 7.10902C0.340962 7.10902 0.140962 6.90902 0.0409615 6.70902C0.0409615 6.50902 -0.359039 2.70902 1.34096 0.209017C1.54096 0.00901718 1.74096 -0.0909832 2.04096 0.109017C2.24096 0.209017 2.34096 0.509017 2.14096 0.809017C0.64096 3.00902 0.940959 6.60902 0.940959 6.70902C1.04096 6.80902 0.840962 7.10902 0.540962 7.10902Z" transform="translate(46.8594 10.0911)" fill="white"/>
<path d="M9.8 10.4C8.6 10.4 4.8 10.2 2.8 8.2C0.400001 5.8 1.52588e-06 0.7 1.52588e-06 0.5C1.52588e-06 0.2 0.199999 3.8147e-07 0.399999 3.8147e-07C0.699999 3.8147e-07 0.899999 0.2 0.899999 0.4C0.899999 0.4 1.3 5.3 3.5 7.5C5.6 9.6 10.2 9.5 10.2 9.4C10.5 9.4 10.7 9.6 10.7 9.9C10.7 10.2 10.5 10.4 10.2 10.4C10.1 10.4 10 10.4 9.8 10.4Z" transform="translate(44.8999 18.6001)" fill="white"/>
<path d="M6.8 6.3C5.6 6.3 3.7 6.1 2.3 5.2C0.3 3.8 7.62939e-07 0.6 7.62939e-07 0.5C7.62939e-07 0.2 0.199998 0 0.399998 0C0.699998 0 0.899998 0.2 0.899998 0.4C0.899998 0.4 1.1 3.3 2.8 4.4C4.5 5.5 7.2 5.4 7.7 5.3C8 5.3 8.2 5.5 8.2 5.7C8.2 6 8 6.2 7.8 6.2C7.6 6.3 7.3 6.3 6.8 6.3Z" transform="translate(47.7002 20.5)" fill="white"/>
<path d="M1.39521 8.3C1.19521 8.3 0.995209 8.2 0.995209 8C0.895209 7.8 -0.504792 3.9 0.195208 0.400001C0.295208 0.100001 0.495208 -7.62939e-07 0.795208 -7.62939e-07C1.09521 0.0999992 1.19521 0.3 1.19521 0.6C0.595208 3.8 1.99521 7.6 1.99521 7.6C2.09521 7.8 1.99521 8.1 1.69521 8.2C1.49521 8.3 1.39521 8.3 1.39521 8.3Z" transform="translate(15.2051 22.3)" fill="white"/>
<path d="M1.05401 7.9375C0.854007 7.9375 0.654007 7.8375 0.554007 7.5375C0.554007 7.3375 -0.545994 3.4375 0.354006 0.337499C0.454006 0.0374992 0.654006 -0.0625 0.954006 0.0375C1.25401 0.1375 1.35401 0.3375 1.25401 0.6375C0.454005 3.4375 1.45401 7.2375 1.45401 7.3375C1.55401 7.6375 1.35401 7.8375 1.15401 7.9375C1.15401 7.9375 1.15401 7.9375 1.05401 7.9375Z" transform="translate(17.5459 21.4626)" fill="white"/>
<path d="M0.499999 6.56569C0.399999 6.56569 0.399999 6.56569 0.499999 6.56569C0.199999 6.56569 1.90735e-07 6.26569 1.90735e-07 6.06569C1.90735e-07 5.86569 0.600001 1.86568 3.4 0.065685C3.6 -0.034315 3.9 -0.0343146 4.1 0.165685C4.2 0.365685 4.2 0.665685 4 0.865685C1.6 2.46569 1.1 6.16569 1.1 6.16569C0.9 6.36569 0.699999 6.56569 0.499999 6.56569Z" transform="translate(15.8003 13.3345)" fill="white"/>
<path d="M0.437501 4.95H0.3375C0.0375004 4.85 -0.0625008 4.65 0.0374992 4.35C0.0374992 4.25 0.637499 1.95 2.5375 0.15C2.7375 -0.0499996 3.0375 -0.0499996 3.2375 0.15C3.4375 0.35 3.4375 0.65 3.2375 0.85C1.5375 2.45 1.0375 4.55 1.0375 4.55C0.837499 4.75 0.637501 4.95 0.437501 4.95Z" transform="translate(18.2627 14.4502)" fill="white"/>
<path d="M2.55 6.85C2.45 6.85 2.45 6.85 2.35 6.85C2.15 6.75 2.05 6.45 2.15 6.25C2.15 6.25 3.25 3.55 0.15 0.85C-0.0500002 0.65 -0.0500002 0.350001 0.15 0.150001C0.35 -0.0499992 0.65 -0.0499992 0.85 0.150001C3.95 2.85 3.55 5.75 3.05 6.65C2.85 6.75 2.75 6.85 2.55 6.85Z" transform="translate(5.55029 23.05)" fill="white"/>
<path d="M3.90902 10.809C3.80902 10.809 3.80902 10.809 3.70902 10.809C3.50902 10.709 3.30902 10.409 3.40902 10.209C3.50902 10.009 5.40902 4.80902 0.209017 0.909017C0.00901699 0.709017 -0.0909829 0.409017 0.109017 0.209017C0.309017 0.0090166 0.609017 -0.0909838 0.809017 0.109016C6.60902 4.50902 4.30902 10.509 4.30902 10.509C4.20902 10.609 4.10902 10.809 3.90902 10.809Z" transform="translate(6.29102 20.6912)" fill="white"/>
<path d="M0.439229 2.3266C0.339229 2.3266 0.339232 2.3266 0.239232 2.2266C0.039232 2.1266 -0.0607688 1.8266 0.0392312 1.6266C0.0392312 1.6266 0.53923 0.626598 2.13923 0.0265979C2.33923 -0.0734021 2.63923 0.126599 2.73923 0.326599C2.83923 0.526599 2.63923 0.826599 2.43923 0.926599C1.23923 1.3266 0.83923 2.0266 0.83923 2.0266C0.83923 2.2266 0.639229 2.3266 0.439229 2.3266Z" transform="translate(44.6606 24.7734)" fill="white"/>
<path d="M0.5 2.0266C0.2 2.0266 0 1.8266 0 1.5266C0 1.2266 0.2 0.526599 2 0.0265986C2.3 -0.0734014 2.5 0.126598 2.6 0.326598C2.7 0.626598 2.5 0.826598 2.3 0.926598C1.2 1.2266 1 1.5266 0.900002 1.6266C0.900002 1.9266 0.7 2.0266 0.5 2.0266Z" transform="translate(46.5 26.4734)" fill="white"/>
<path d="M0.45 5.63923C0.35 5.63923 0.25 5.63923 0.15 5.53923C-0.0499996 5.33923 -0.0499996 5.03923 0.15 4.83923C0.15 4.83923 1.95 2.73923 1.05 0.63923C0.95 0.43923 1.05 0.13923 1.25 0.0392304C1.45 -0.0607696 1.75 0.0392307 1.85 0.239231C3.05 2.93923 0.949999 5.33923 0.849999 5.43923C0.649999 5.53923 0.55 5.63923 0.45 5.63923Z" transform="translate(20.9502 6.06079)" fill="white"/>
<path d="M0.45 7.53923C0.35 7.53923 0.250001 7.53923 0.150001 7.43923C-0.0499992 7.23923 -0.0499992 6.93923 0.150001 6.73923C0.150001 6.63923 2.45 4.03923 0.95 0.63923C0.85 0.43923 0.950001 0.139231 1.15 0.0392306C1.35 -0.0607694 1.65 0.0392304 1.75 0.23923C3.55 4.23923 0.750001 7.23923 0.650001 7.33923C0.650001 7.43923 0.55 7.53923 0.45 7.53923Z" transform="translate(23.0503 5.36084)" fill="white"/>
<path d="M22.6657 8.8798C22.3657 8.8798 22.1657 8.6798 22.1657 8.3798V3.7798C22.1657 2.9798 21.8657 2.1798 21.3657 1.5798C21.0657 1.1798 20.0657 0.779795 19.4657 0.979795H19.3657C19.3657 0.979795 18.1657 1.2798 16.1657 3.2798C13.4657 5.8798 10.4657 6.97979 6.96569 6.77979C6.96569 6.77979 6.36569 6.6798 5.76569 6.5798C4.76569 6.2798 3.76569 5.67979 2.96569 4.77979C2.56569 4.27979 2.16569 3.9798 1.76569 3.7798C1.06569 3.5798 0.765685 3.6798 0.765685 3.7798C0.565685 3.8798 0.265686 3.8798 0.0656856 3.6798C-0.0343144 3.4798 -0.0343145 3.1798 0.165686 2.9798C0.265686 2.9798 0.865685 2.5798 1.96569 2.8798C2.46569 3.0798 3.06569 3.4798 3.56569 4.0798C4.16569 4.8798 5.06569 5.3798 5.96569 5.5798C6.56569 5.6798 7.06569 5.77979 7.06569 5.77979C10.2657 5.97979 13.0657 4.9798 15.4657 2.5798C17.6657 0.479796 18.9657 0.0797955 19.1657 0.0797955C20.1657 -0.220204 21.5657 0.379795 22.0657 0.979795C22.6657 1.7798 23.0657 2.7798 23.0657 3.7798V8.3798C23.0657 8.6798 22.8657 8.8798 22.6657 8.8798Z" transform="translate(4.23438 27.8203)" fill="white"/>
<path d="M11.6375 7.6375C9.7375 7.6375 6.5375 7.3375 4.0375 5.3375C0.937501 2.9375 0.0374998 0.7375 0.0374998 0.6375C-0.0625002 0.4375 0.0375 0.1375 0.3375 0.0375C0.5375 -0.0625 0.8375 0.0375002 0.9375 0.3375C0.9375 0.3375 1.7375 2.3375 4.6375 4.6375C8.1375 7.3375 13.1375 6.6375 13.2375 6.6375C13.5375 6.6375 13.7375 6.7375 13.7375 7.0375C13.7375 7.3375 13.6375 7.5375 13.3375 7.5375C13.2375 7.5375 12.6375 7.6375 11.6375 7.6375Z" transform="translate(15.6626 8.96265)" fill="white"/>
</svg>
