<?xml version="1.0" encoding="utf-8"?>
<!-- Generator: Adobe Illustrator 21.1.0, SVG Export Plug-In . SVG Version: 6.00 Build 0)  -->
<svg version="1.1" id="Layer_1" xmlns="http://www.w3.org/2000/svg" xmlns:xlink="http://www.w3.org/1999/xlink" x="0px" y="0px"
	 viewBox="0 0 340 64" style="enable-background:new 0 0 340 64;" xml:space="preserve">
<style type="text/css">
	.st0{fill:#ED2C24;}
	.st1{fill:#FFFFFF;}
	.st2{fill:#201C1B;}
	.st3{fill:#EA202A;}
	.st4{fill:none;stroke:#FFFFFF;stroke-width:2.5;stroke-linecap:round;stroke-miterlimit:10;}
</style>
<g>
	<g>
		<circle class="st0" cx="32" cy="32" r="31.9"/>
	</g>
	<g>
		<path class="st1" d="M35.9,37.1c-0.3,0-0.5-0.2-0.5-0.5c0-0.2-0.2-3.9,0.4-5.7c0.1-0.3,0.6-2.2,2.4-3.3c0.1-0.1,0.2-0.1,0.3-0.2
			c1.7-0.8,3.8-0.5,5.2,0.8c0.9,0.8,1.9,2.2,2.5,3.2c1.1,1.9,3.1,4.4,8.2,4.4c0.1,0,2.2,0.2,4.6-1.1c0.2-0.1,0.5,0,0.6,0.2
			s0,0.5-0.2,0.6c-2.6,1.4-5,1.2-5.1,1.2c-4.2,0-7.1-1.6-9-4.9c-0.5-0.9-1.5-2.2-2.3-2.9c-1.1-1-2.8-1.3-4.1-0.7
			c-0.1,0-0.2,0.1-0.2,0.1c-1.5,0.9-2,2.7-2,2.7l0,0c-0.6,1.6-0.4,5.3-0.4,5.3C36.4,36.9,36.2,37.1,35.9,37.1
			C36,37.1,35.9,37.1,35.9,37.1z"/>
	</g>
	<g>
		<g>
			<path class="st2" d="M50.7,47.1c-0.6,0-5.7,0.1-6.8,0.4c-0.7,0.2-2.1-0.1-2.6-0.3c-0.2-0.1-0.5,0.1-0.6,0.3s0.1,0.5,0.3,0.6
				c0.1,0,1.2,0.4,2.3,0.4c0.3,0,0.5,0,0.8-0.1c0.8-0.2,5-0.3,6.6-0.4c0.3,0,0.5-0.2,0.4-0.5C51.1,47.3,50.9,47.1,50.7,47.1"/>
		</g>
		<g>
			<path class="st3" d="M26.9,36.5"/>
		</g>
		<g>
			<path class="st1" d="M22.1,49.7L22.1,49.7c-2.6-3.3-7.2-2.5-7.4-2.5c-0.3,0.1-0.4,0.3-0.3,0.5c0.1,0.2,0.3,0.4,0.5,0.3
				c0.1,0,4.2-0.8,6.5,2.1c0.2,0.3,0.4,0.5,0.7,0.7c0.1,0.1,0.2,0.1,0.3,0.1s0.3-0.1,0.3-0.1c0.2-0.2,0.1-0.5,0-0.6
				C22.5,50.1,22.3,49.9,22.1,49.7z"/>
		</g>
		<g>
			<path class="st1" d="M32.9,38.1c0,0.3,0.2,0.5,0.5,0.5s0.5-0.2,0.5-0.5v-0.8L32.9,38.1L32.9,38.1z"/>
		</g>
		<g>
			<path class="st1" d="M36.9,36.5c0.1,0.2,0.2,0.3,0.4,0.3c0.1,0,0.1,0,0.1,0c0.2-0.1,0.4-0.3,0.3-0.6l-0.1-0.4
				c-0.5,0.1-0.9,0.2-0.9,0.2L36.9,36.5z"/>
		</g>
		<g>
			<path class="st1" d="M30.8,37L30.8,37L30.8,37l-0.9-0.5l0,0l0,0c-0.6-0.2-1.3-0.4-2.2-0.5h-1c-0.8,0-1.6,0.2-2.4,0.4l0,0l0,0
				L23,36.7l0,0c-0.1,0-0.3,0.1-0.4,0.1l-1.3,0.4c-0.9,0.3-1.8,0.5-2.4,0.6c-0.8,0.1-1.2,0.2-1.5,0.2c-1.1,0-1.6,0.1-2.4,0.1
				c-0.3,0-0.5,0.2-0.5,0.5s0.2,0.5,0.5,0.5c3.4,0,5.7-0.7,7.8-1.4c1.5-0.5,2.8-0.8,4.2-0.8c2.8,0,4.2,1.4,4.3,1.4l0.9,0.9
				c0.1,0.1,0.2,0.1,0.3,0.1s0.2-0.1,0.3-0.1c0.2-0.2,0.2-0.5,0-0.6l-0.2-0.2v-0.1l-0.9-0.8C31.4,37.5,31.2,37.3,30.8,37z"/>
		</g>
		<g>
			<path class="st1" d="M24.2,36.4L24.2,36.4L24.2,36.4z"/>
		</g>
		<g>
			<path class="st1" d="M41.2,47L41.2,47L41,46.9c-0.3-0.3-3.5-3.4-5.9-5.8c-0.2-0.2-0.5-0.2-0.6,0c-0.2,0.2-0.2,0.5,0,0.6
				c2.4,2.4,5.6,5.5,5.9,5.8l0.1,0.1c0.5,0.5,1.7,1.6,1.7,2.5c0,0.2-0.1,0.4-0.3,0.6c-0.3,0.2-0.5,0.3-0.8,0.3
				c-0.6,0-1.2-0.5-1.3-0.7c-0.3-0.3-0.5-0.5-0.7-0.7c-0.1-0.1-0.2-0.1-0.2-0.2l-2-1.9l-0.6,0.6l2,1.9c0.1,0.1,0.1,0.1,0.3,0.2
				c0.4,0.4,1.4,1.2,1.4,1.9c0,0.2-0.1,0.3-0.2,0.4c-0.2,0.2-0.4,0.3-0.7,0.3c-0.5,0-0.9-0.5-1.1-0.6l0,0c-0.1-0.2-0.3-0.3-0.4-0.5
				l-2.3-2.3L34.7,50l2.3,2.3c0.4,0.4,0.6,0.7,0.7,1c0.1,0.3,0,0.5-0.3,0.8c-0.5,0.4-1.1,0.1-1.3,0c-0.1-0.2-0.2-0.3-0.4-0.5
				c-0.5-0.5-1.9-2.1-2-2.1c-0.2-0.2-0.5-0.2-0.6,0c-0.2,0.2-0.2,0.5,0,0.6c0.1,0.1,1.4,1.6,2,2.1c0.2,0.2,0.4,0.5,0.4,0.8
				c0.1,0.3,0,0.5-0.3,0.7c0,0.3-0.2,0.3-0.3,0.3c-0.3,0-1-0.2-2.4-1.6c-0.2-0.2-0.5-0.2-0.6,0s-0.2,0.5,0,0.6
				c1.2,1.2,2.2,1.9,3,1.9l0,0c0.4,0,0.7-0.1,1-0.4c0.3-0.3,0.5-0.8,0.5-1.2c0.1,0,0.3,0.1,0.5,0.1c0.4,0,0.8-0.1,1.2-0.5
				c0.3-0.3,0.5-0.7,0.6-1.2c0.1,0.1,0.3,0.1,0.5,0.1h0.1c0.5,0,0.9-0.2,1.2-0.5s0.5-0.7,0.5-1.1c0-0.1,0-0.2-0.1-0.3
				c0.1,0,0.2,0,0.4,0l0,0c0.5,0,1-0.2,1.4-0.6c0.3-0.3,0.5-0.7,0.5-1.2C43.1,48.9,41.7,47.6,41.2,47z"/>
		</g>
		<g>
			<ellipse class="st1" cx="24.2" cy="36.4" rx="0" ry="0"/>
		</g>
		<g>
			<path class="st1" d="M24.2,36.4L24.2,36.4L24.2,36.4z"/>
		</g>
		<g>
			<path class="st2" d="M35.1,36.6L35.1,36.6L35.1,36.6z"/>
		</g>
		<g>
			<path class="st2" d="M43.9,36.6L43.9,36.6L43.9,36.6z"/>
		</g>
		<g>
			<path class="st2" d="M31.8,52.1L31.8,52.1c-0.1,0-0.3,0-0.4,0.1c0.2-0.3,0.3-0.7,0.3-1c0-0.5-0.2-0.8-0.5-1.2
				c-0.3-0.3-0.6-0.4-1-0.4c-0.2,0-0.5,0.1-0.7,0.1c0-0.5-0.3-0.9-0.5-1.1c-0.7-0.7-1.5-0.5-2.3,0v-0.1c0-0.4-0.1-0.7-0.4-0.9
				c-0.2-0.2-0.5-0.3-0.8-0.3c-0.8,0-1.5,0.7-2,1.3l-0.1,0.1c-0.3,0.3-0.9,0.9-1.3,1.6c-0.7,1.1-0.4,1.8-0.1,2.1s0.5,0.4,0.9,0.4
				c0.1,0,0.3,0,0.5-0.1c-0.2,0.6-0.1,1.1,0.3,1.5c0.3,0.3,0.7,0.5,1.2,0.5c0.2,0,0.3,0,0.5-0.1c-0.1,0.5,0,0.9,0.4,1.3
				c0.3,0.3,0.7,0.5,1,0.5c0.5,0,0.9-0.2,1.3-0.5c-0.1,0.5,0,0.9,0.3,1.2c0.2,0.3,0.5,0.4,0.8,0.4l0,0c1.3,0,3.1-2,3.6-3.3
				c0.4-0.9,0.1-1.4-0.1-1.6C32.5,52.3,32.2,52.1,31.8,52.1z M22.9,51.8c-0.1,0-0.1,0-0.3-0.1l0,0c-0.2-0.2,0-0.7,0.2-1
				c0.3-0.6,0.8-1.1,1.1-1.4l0.1-0.1c0.4-0.4,1-1,1.4-1c0.1,0,0.1,0,0.2,0.1s0.1,0.2,0.1,0.3c0,0.5-0.7,1.4-1.3,2.1l-0.2,0.2
				C24,51.1,23.4,51.8,22.9,51.8z M24.3,53.5L24.3,53.5c-0.5-0.5,0.5-2,1.6-3.1c1.2-1.2,1.9-1.5,2.4-1.1c0.2,0.1,0.5,0.5-0.1,1.3
				c-0.3,0.2-0.5,0.5-0.7,0.7c-0.5,0.5-1.2,1.3-1.7,2C25.5,53.6,24.8,54,24.3,53.5z M28.7,54.1c-0.5,0.5-1.3,1.4-2,1.4
				c-0.1,0-0.3-0.1-0.4-0.2l0,0l0,0l0,0c-0.6-0.6,0.5-2.1,1.7-3.3c0.2-0.2,0.5-0.4,0.7-0.7l0,0l0,0c0.5-0.4,1-0.7,1.3-0.7
				c0.1,0,0.2,0.1,0.3,0.1c0.2,0.2,0.3,0.3,0.3,0.6c0,0.9-1.2,2.1-1.7,2.5l-0.1,0.1C28.9,53.9,28.8,54,28.7,54.1z M32,53.8
				c-0.5,1.2-2.1,2.7-2.8,2.7c-0.1,0-0.1,0-0.2-0.1c-0.3-0.4,0.2-1.5,1.4-2.6c0.5-0.5,1-0.8,1.4-0.8c0.1,0,0.2,0,0.3,0.1
				C32.2,53.2,32.2,53.4,32,53.8L32,53.8z"/>
		</g>
		<g>
			<path class="st2" d="M26.4,55.2L26.4,55.2L26.4,55.2z"/>
		</g>
	</g>
	<g>
		<path class="st1" d="M33.7,38.2c-0.3,0-0.5-0.2-0.5-0.5c0-0.2-0.2-5.3,0.4-7.6c0-0.1,0.8-3.1,3.3-4.5c2.3-1.3,4.8-0.9,5.1-0.8
			c0.4,0,3.6,0.4,5.7,4.3l0,0c1.2,2.8,3.9,4,3.9,4s3.1,1.4,7.3-0.6c0.2-0.1,0.5,0,0.6,0.2s0,0.5-0.2,0.6c-4.5,2.1-7.9,0.7-8.1,0.6
			c-0.1,0-3-1.3-4.4-4.4c-2-3.6-4.9-3.8-5-3.8h-0.1c0,0-2.4-0.5-4.5,0.7s-2.8,3.9-2.8,3.9c-0.6,2.3-0.4,7.3-0.4,7.4
			C34.2,38,34,38.2,33.7,38.2L33.7,38.2z"/>
	</g>
	<g>
		<path class="st2" d="M50.7,38.3L50.7,38.3c-1.7,0-4.5-0.2-5.2-0.8c-0.4-0.3-0.9-0.7-1.5-0.9l0,0c-1-0.5-2.2-0.9-3.6-0.9
			c-1.9,0-3.6,0.3-4.9,0.7c-0.1,0-0.2,0.1-0.3,0.1l0,0c-0.4,0.2-0.8,0.4-1.1,0.7c-0.1,0-0.1,0.1-0.2,0.1l0,0l0,0
			c-0.1,0.1-0.3,0.2-0.5,0.4c-1.7,1.2-4.9,3.5-4.9,5.9c0,0.3-0.2,2.4,0.8,3.5c0.4,0.4,0.8,0.6,1.4,0.6c0.5,0,0.9-0.2,1.2-0.5
			c0.7-0.7,0.6-1.8,0.5-2.8c0-0.4-0.1-0.9,0-1c0.5-0.7,1.6-1.6,2.4-1.6c0.3,0,0.5-0.2,0.5-0.5s-0.2-0.5-0.5-0.5
			c-1.3,0-2.7,1.4-3.1,2c-0.3,0.3-0.2,0.8-0.2,1.6c0,0.7,0.1,1.8-0.3,2.1c-0.1,0.1-0.2,0.2-0.6,0.2c-0.3,0-0.6-0.1-0.8-0.3
			c-0.6-0.7-0.7-2.3-0.6-2.8l0,0l0,0c0-1.9,3.1-4.1,4.6-5.2c0.3-0.2,0.6-0.4,0.7-0.5c1-0.8,3.1-1.3,5.7-1.3c2,0,3.6,0.9,4.6,1.6
			c1.3,0.9,5.3,1,5.8,1c0.3,0,0.5-0.2,0.5-0.5C51.1,38.5,50.9,38.3,50.7,38.3z"/>
	</g>
	<g>
		<path class="st1" d="M12.4,32.3c-2.2,0-3-0.8-3.5-1.3c-0.1-0.1-0.1-0.1-0.2-0.2c-0.1-0.1-0.2-0.2-0.3-0.3c-0.2-0.2-0.8-0.8-1-0.9
			C6.7,29.2,6,28.9,5,29.5c-0.2,0.1-0.5,0-0.6-0.2s0-0.5,0.2-0.6C6,28,7,28.4,7.9,28.8c0.2,0.1,0.6,0.4,1.2,1
			c0.1,0.1,0.2,0.2,0.3,0.3c0.1,0.1,0.1,0.1,0.2,0.2c0.5,0.5,1.1,1.1,3.3,1c3.3-0.2,6.3-3.4,6.3-3.5c2.2-2.5,4.5-2.5,4.9-2.4
			c3.4-0.2,5.1,3.1,5.5,4.9c0.1,0.3-0.1,0.5-0.3,0.6c-0.3,0.1-0.5-0.1-0.6-0.3c0-0.2-1.2-4.4-4.6-4.2l0,0l0,0
			c-0.1,0-2.1-0.2-4.1,2.1c-0.1,0.2-3.3,3.6-7,3.8C12.7,32.3,12.5,32.3,12.4,32.3z"/>
	</g>
	<g>
		<path class="st4" d="M28.8,36.6"/>
	</g>
	<g>
		<path class="st1" d="M31.6,38.5c-0.3,0-0.5-0.2-0.5-0.5V26.1c0-0.2-0.4-5.5-5.3-7l0,0c0,0-3.2-1.3-6.8,0.3c-4.5,1.9-7,0.2-7.3-0.1
			c-0.3-0.2-1.8-1.3-2.1-4c0-0.3,0.2-0.5,0.4-0.5c0.3,0,0.5,0.2,0.5,0.4c0.2,2.5,1.6,3.3,1.6,3.3h0.1c0.1,0.1,2.3,1.8,6.4,0
			c3.9-1.7,7.2-0.4,7.6-0.3c5.5,1.7,5.9,7.9,5.9,7.9V38C32.1,38.2,31.9,38.5,31.6,38.5L31.6,38.5z"/>
	</g>
	<g>
		<path class="st1" d="M29.1,36.8c-0.3,0-0.5-0.2-0.5-0.5V26.2c0-0.3-0.5-3.4-2.7-4.3h-0.1c0,0-1.8-1-3.6-0.9c-1.8,0.1-3.6,1-3.7,1
			s-1.7,0.9-3.5,0.9C12.8,23,9.7,22.7,7.7,18c-0.1-0.2,0-0.5,0.2-0.6s0.5,0,0.6,0.2c1.7,4,4.3,4.4,6.4,4.3c1.6,0,3.1-0.8,3.1-0.8
			c0.1,0,2-1,4-1.2c2-0.1,3.8,0.8,4.1,1c2.8,1.1,3.3,4.9,3.3,5.1v0.1v10.2C29.6,36.6,29.4,36.8,29.1,36.8z"/>
	</g>
	<g>
		<path class="st1" d="M31.6,31.3L31.6,31.3c-0.3,0-0.5-0.2-0.5-0.5c0-0.1,0.1-2.6,1.1-4.5l0,0l0.2-0.2c0.6-0.9,1.3-2,3.6-2.8
			c1.8-0.6,2.8-2.2,2.7-4.2c-0.1-2.1-1.7-3.5-2.3-3.9c-0.1-0.1-0.2-0.1-0.3-0.2c-0.2-0.1-0.4-0.3-0.6-0.5c-3.9-4.2-0.2-9.7-0.2-9.8
			c0.1-0.2,0.4-0.3,0.7-0.1c0.2,0.1,0.3,0.4,0.1,0.7c-0.1,0.2-3.3,5,0.1,8.6c0.1,0.1,0.3,0.2,0.4,0.3c0.1,0.1,0.2,0.1,0.3,0.2
			c0.6,0.5,2.5,2,2.6,4.6c0.1,2.5-1.1,4.4-3.4,5.2c-2,0.6-2.5,1.5-3.1,2.4v0.2c-0.9,1.7-1,4-1,4C32,31.1,31.8,31.3,31.6,31.3z"/>
	</g>
	<g>
		<path class="st1" d="M37.9,26.2c-0.2,0-0.4-0.1-0.5-0.3c-0.1-0.2,0-0.5,0.3-0.6c0.1,0,2.9-1.1,3.6-4.2c0,0,0.5-2.3-0.5-4.4
			c-1-2.3-2.9-3.5-3-3.5c-0.1-0.1-1.3-0.9-1.5-2.4c-0.4-2.6,1.3-5.4,1.4-5.5C37.9,5,38.2,5,38.4,5.1s0.3,0.4,0.1,0.7
			c0,0-1.6,2.6-1.2,4.8c0.2,1.1,1.1,1.7,1.1,1.7c0.1,0,2.2,1.4,3.3,3.9c1,2.5,0.5,4.9,0.5,5c-0.7,3.7-4.1,4.9-4.2,4.9
			C38,26.2,38,26.2,37.9,26.2z"/>
	</g>
	<g>
		<path class="st1" d="M51.1,21.7c-0.2,0-0.4,0-0.5,0c-1.7-0.1-2.7-0.8-3.4-1.3c-0.9-0.7-1.5-0.9-1.9-0.9c-2,0-3,1.7-3,1.8
			c-0.1,0.2-0.4,0.3-0.6,0.2c-0.2-0.1-0.3-0.4-0.2-0.6c0.1-0.1,1.3-2.3,3.8-2.3c0.6,0,1.5,0.4,2.4,1.1c0.7,0.5,1.5,1,2.9,1.1
			s3.8-0.1,4.8-2.6c0.1-0.2,0.4-0.4,0.6-0.3c0.2,0.1,0.4,0.4,0.3,0.6C55.2,21.2,52.6,21.7,51.1,21.7z"/>
	</g>
	<g>
		<path class="st1" d="M51.1,19.2c-1.1,0-2.2-0.8-2.3-0.9c0,0-1.3-1.1-2.6-1.4c-1-0.2-1.8,0-1.8,0c-1.6,0.4-2.1,1.2-2.1,1.2
			c-0.1,0.2-0.4,0.3-0.6,0.2c-0.2-0.1-0.3-0.4-0.2-0.6c0.1-0.1,0.7-1.2,2.7-1.7c0,0,0.9-0.3,2.2,0c1.5,0.3,2.9,1.5,3,1.6
			c0.2,0.2,1,0.7,1.7,0.7s1-0.1,1.6-0.5c0.5-0.3,1-1.3,1.2-1.6c0.1-0.2,0.4-0.3,0.6-0.2c0.2,0.1,0.3,0.4,0.2,0.6s-0.7,1.5-1.5,2
			C52.5,19,52,19.2,51.1,19.2z"/>
	</g>
	<g>
		<path class="st1" d="M57.2,33.8c-0.2,0-0.4-0.1-0.5-0.3c0-0.1-0.6-1.9-0.2-4.1c0.3-2,1.5-3,1.6-3c0.2-0.2,0.5-0.1,0.7,0.1
			s0.1,0.5-0.1,0.7c0,0-1,0.9-1.2,2.5c-0.3,2,0.2,3.7,0.2,3.7c0.1,0.3-0.1,0.5-0.3,0.6C57.3,33.8,57.2,33.8,57.2,33.8z"/>
	</g>
	<g>
		<path class="st1" d="M55.1,34.3c-0.2,0-0.4-0.1-0.5-0.3c0-0.1-0.7-2.3-0.1-5.5c0.6-3.4,2.6-4.7,2.7-4.8c0.2-0.1,0.5-0.1,0.7,0.1
			c0.1,0.2,0.1,0.5-0.1,0.7c0,0-1.8,1.2-2.3,4.1s0.1,5.1,0.1,5.1c0.1,0.3-0.1,0.5-0.3,0.6C55.2,34.3,55.2,34.3,55.1,34.3z"/>
	</g>
	<g>
		<path class="st1" d="M27.9,19.9c-0.1,0-0.2,0-0.3-0.1c-0.2-0.2-0.2-0.5,0-0.7l0,0c0,0,1.2-1.3,1.3-3.6l0,0c0-0.1,0.9-6.5-2-10.2
			c-0.2-0.2-0.1-0.5,0.1-0.7s0.5-0.1,0.7,0.1c3.1,3.9,2.3,10.4,2.2,10.9c-0.1,2.6-1.5,4.1-1.5,4.1C28.1,19.8,28,19.9,27.9,19.9z"/>
	</g>
	<g>
		<path class="st1" d="M29.8,21.4c-0.1,0-0.2,0-0.3-0.1c-0.2-0.2-0.2-0.5,0-0.7c0,0,1.1-1.2,1.5-3.2c1.1-5.8-0.5-10.7-1.9-12.5
			c-0.2-0.2-0.1-0.5,0.1-0.7c0.2-0.2,0.5-0.1,0.7,0.1c1.5,2,3.2,7.2,2,13.3c-0.4,2.3-1.7,3.6-1.8,3.7C30,21.4,29.9,21.4,29.8,21.4z"
			/>
	</g>
	<g>
		<path class="st1" d="M29.1,14.4c-0.4,0-9-0.1-11.2-6.1c-0.1-0.2,0-0.5,0.3-0.6c0.2-0.1,0.5,0,0.6,0.3c2,5.4,10.3,5.4,10.4,5.4
			c0.3,0,0.5,0.2,0.5,0.5C29.6,14.2,29.4,14.4,29.1,14.4z"/>
	</g>
	<g>
		<path class="st1" d="M32,14.2C32,14.2,31.9,14.2,32,14.2c-0.3,0-0.5-0.2-0.5-0.5s0.2-0.5,0.5-0.5l0,0c0,0,2,0,3.1-0.5
			c0.2-0.1,0.5,0,0.6,0.2s0,0.5-0.2,0.6C34.2,14.2,32.1,14.2,32,14.2z"/>
	</g>
	<g>
		<path class="st1" d="M31.9,16.6c-0.1,0-0.2,0-0.2,0c-0.3,0-0.5-0.2-0.5-0.5c0-0.3,0.2-0.5,0.5-0.5c0,0,3.1,0.1,5.1-1
			c0.2-0.1,0.5,0,0.6,0.2s0,0.5-0.2,0.6C35.4,16.5,32.7,16.6,31.9,16.6z"/>
	</g>
	<g>
		<path class="st1" d="M37.5,12.5c-0.2,0-0.3-0.1-0.4-0.2c-0.1-0.2,0-0.5,0.2-0.6c0,0,3.4-2,4-5.2c0-0.3,0.3-0.4,0.6-0.4
			s0.4,0.3,0.4,0.6c-0.6,3.7-4.3,5.8-4.5,5.8C37.6,12.4,37.5,12.5,37.5,12.5z"/>
	</g>
	<g>
		<path class="st1" d="M39.3,14c-0.2,0-0.4-0.1-0.4-0.3c-0.1-0.2,0-0.5,0.3-0.6l0,0c0,0,3.3-1.5,4.3-5.6c0-0.3,0.3-0.5,0.5-0.4
			c0.3,0.1,0.4,0.3,0.4,0.6c-1.1,4.6-4.7,6.2-4.9,6.2C39.4,13.9,39.4,14,39.3,14z"/>
	</g>
	<g>
		<path class="st1" d="M44.9,16.6c-0.2,0-0.4-0.2-0.5-0.4c0-0.2-0.4-4.3,1.6-7.3c0.1-0.2,0.4-0.3,0.7-0.1c0.2,0.1,0.3,0.4,0.1,0.7
			C45,12.1,45.4,16,45.4,16C45.4,16.3,45.2,16.5,44.9,16.6L44.9,16.6z"/>
	</g>
	<g>
		<path class="st1" d="M47.4,17.2c-0.2,0-0.4-0.2-0.5-0.4c0-0.2-0.4-4,1.3-6.5c0.2-0.2,0.4-0.3,0.7-0.1c0.2,0.1,0.3,0.4,0.1,0.7
			c-1.5,2.2-1.2,5.8-1.2,5.9C47.9,16.9,47.7,17.2,47.4,17.2L47.4,17.2z"/>
	</g>
	<g>
		<path class="st1" d="M54.7,29c-1.2,0-5-0.2-7-2.2c-2.4-2.4-2.8-7.5-2.8-7.7c0-0.3,0.2-0.5,0.4-0.5c0.3,0,0.5,0.2,0.5,0.4
			c0,0,0.4,4.9,2.6,7.1c2.1,2.1,6.7,2,6.7,1.9c0.3,0,0.5,0.2,0.5,0.5S55.4,29,55.1,29C55,29,54.9,29,54.7,29z"/>
	</g>
	<g>
		<path class="st1" d="M54.5,26.8c-1.2,0-3.1-0.2-4.5-1.1c-2-1.4-2.3-4.6-2.3-4.7c0-0.3,0.2-0.5,0.4-0.5c0.3,0,0.5,0.2,0.5,0.4
			c0,0,0.2,2.9,1.9,4s4.4,1,4.9,0.9c0.3,0,0.5,0.2,0.5,0.4c0,0.3-0.2,0.5-0.4,0.5C55.3,26.8,55,26.8,54.5,26.8z"/>
	</g>
	<g>
		<path class="st1" d="M16.6,30.6c-0.2,0-0.4-0.1-0.4-0.3c-0.1-0.2-1.5-4.1-0.8-7.6c0.1-0.3,0.3-0.4,0.6-0.4
			c0.3,0.1,0.4,0.3,0.4,0.6c-0.6,3.2,0.8,7,0.8,7c0.1,0.2,0,0.5-0.3,0.6C16.7,30.6,16.6,30.6,16.6,30.6z"/>
	</g>
	<g>
		<path class="st1" d="M18.6,29.4c-0.2,0-0.4-0.1-0.5-0.4c0-0.2-1.1-4.1-0.2-7.2c0.1-0.3,0.3-0.4,0.6-0.3c0.3,0.1,0.4,0.3,0.3,0.6
			C18,24.9,19,28.7,19,28.8c0.1,0.3-0.1,0.5-0.3,0.6C18.7,29.4,18.7,29.4,18.6,29.4z"/>
	</g>
	<g>
		<path class="st1" d="M16.3,19.9C16.2,19.9,16.2,19.9,16.3,19.9c-0.3,0-0.5-0.3-0.5-0.5s0.6-4.2,3.4-6c0.2-0.1,0.5-0.1,0.7,0.1
			c0.1,0.2,0.1,0.5-0.1,0.7c-2.4,1.6-2.9,5.3-2.9,5.3C16.7,19.7,16.5,19.9,16.3,19.9z"/>
	</g>
	<g>
		<path class="st1" d="M18.7,19.4h-0.1c-0.3-0.1-0.4-0.3-0.3-0.6c0-0.1,0.6-2.4,2.5-4.2c0.2-0.2,0.5-0.2,0.7,0s0.2,0.5,0,0.7
			c-1.7,1.6-2.2,3.7-2.2,3.7C19.1,19.2,18.9,19.4,18.7,19.4z"/>
	</g>
	<g>
		<path class="st1" d="M8.1,29.9c-0.1,0-0.1,0-0.2,0c-0.2-0.1-0.3-0.4-0.2-0.6c0,0,1.1-2.7-2-5.4c-0.2-0.2-0.2-0.5,0-0.7
			s0.5-0.2,0.7,0c3.1,2.7,2.7,5.6,2.2,6.5C8.4,29.8,8.3,29.9,8.1,29.9z"/>
	</g>
	<g>
		<path class="st1" d="M10.2,31.5c-0.1,0-0.1,0-0.2,0c-0.2-0.1-0.4-0.4-0.3-0.6c0.1-0.2,2-5.4-3.2-9.3c-0.2-0.2-0.3-0.5-0.1-0.7
			c0.2-0.2,0.5-0.3,0.7-0.1c5.8,4.4,3.5,10.4,3.5,10.4C10.5,31.3,10.4,31.5,10.2,31.5z"/>
	</g>
	<g>
		<path class="st1" d="M45.1,27.1c-0.1,0-0.1,0-0.2-0.1c-0.2-0.1-0.3-0.4-0.2-0.6c0,0,0.5-1,2.1-1.6c0.2-0.1,0.5,0.1,0.6,0.3
			c0.1,0.2-0.1,0.5-0.3,0.6c-1.2,0.4-1.6,1.1-1.6,1.1C45.5,27,45.3,27.1,45.1,27.1z"/>
	</g>
	<g>
		<path class="st1" d="M47,28.5c-0.3,0-0.5-0.2-0.5-0.5s0.2-1,2-1.5c0.3-0.1,0.5,0.1,0.6,0.3c0.1,0.3-0.1,0.5-0.3,0.6
			c-1.1,0.3-1.3,0.6-1.4,0.7C47.4,28.4,47.2,28.5,47,28.5z M47.5,28.1L47.5,28.1L47.5,28.1z M47.5,28.1L47.5,28.1L47.5,28.1z
			 M47.5,28.1L47.5,28.1L47.5,28.1z M47.5,28.1L47.5,28.1L47.5,28.1z"/>
	</g>
	<g>
		<path class="st1" d="M21.4,11.7c-0.1,0-0.2,0-0.3-0.1c-0.2-0.2-0.2-0.5,0-0.7c0,0,1.8-2.1,0.9-4.2c-0.1-0.2,0-0.5,0.2-0.6
			s0.5,0,0.6,0.2c1.2,2.7-0.9,5.1-1,5.2C21.6,11.6,21.5,11.7,21.4,11.7z"/>
	</g>
	<g>
		<path class="st1" d="M23.5,12.9c-0.1,0-0.2,0-0.3-0.1c-0.2-0.2-0.2-0.5,0-0.7c0-0.1,2.3-2.7,0.8-6.1c-0.1-0.2,0-0.5,0.2-0.6
			s0.5,0,0.6,0.2c1.8,4-1,7-1.1,7.1C23.7,12.8,23.6,12.9,23.5,12.9z"/>
	</g>
	<g>
		<path class="st1" d="M26.9,36.7c-0.3,0-0.5-0.2-0.5-0.5v-4.6c0-0.8-0.3-1.6-0.8-2.2c-0.3-0.4-1.3-0.8-1.9-0.6h-0.1
			c0,0-1.2,0.3-3.2,2.3c-2.7,2.6-5.7,3.7-9.2,3.5c0,0-0.6-0.1-1.2-0.2c-1-0.3-2-0.9-2.8-1.8c-0.4-0.5-0.8-0.8-1.2-1
			c-0.7-0.2-1-0.1-1,0c-0.2,0.1-0.5,0.1-0.7-0.1c-0.1-0.2-0.1-0.5,0.1-0.7c0.1,0,0.7-0.4,1.8-0.1c0.5,0.2,1.1,0.6,1.6,1.2
			c0.6,0.8,1.5,1.3,2.4,1.5c0.6,0.1,1.1,0.2,1.1,0.2c3.2,0.2,6-0.8,8.4-3.2c2.2-2.1,3.5-2.5,3.7-2.5c1-0.3,2.4,0.3,2.9,0.9
			c0.6,0.8,1,1.8,1,2.8v4.6C27.3,36.5,27.1,36.7,26.9,36.7z"/>
	</g>
	<g>
		<path class="st1" d="M27.3,16.6c-1.9,0-5.1-0.3-7.6-2.3c-3.1-2.4-4-4.6-4-4.7c-0.1-0.2,0-0.5,0.3-0.6c0.2-0.1,0.5,0,0.6,0.3
			c0,0,0.8,2,3.7,4.3c3.5,2.7,8.5,2,8.6,2c0.3,0,0.5,0.1,0.5,0.4s-0.1,0.5-0.4,0.5C28.9,16.5,28.3,16.6,27.3,16.6z"/>
	</g>
</g>
<g>
	<path class="st1" d="M101.2,40.2v4.2h-17V15.6H101v4.2H88.9v7.8h10.4v4.2H88.9v8.3H101.2z"/>
	<path class="st1" d="M121.8,44.5h-3.4c-0.9,0-1.5-0.8-1.5-1.8v-1.5c-1.2,2-3.3,3.6-6.4,3.6c-3.3,0-6.1-1.9-6.1-6.1
		c0-4.5,3.3-5.9,8.2-6.5l4.4-0.5v-0.8c0-2.5-1.1-3.5-3.9-3.5c-2.6,0-4.6,0.9-5.9,1.7l-1.2-3.2c2.3-1.4,4.7-2.2,7.8-2.2
		c5.2,0,7.7,2.3,7.7,7.5v11.6C121.5,43.5,121.5,44,121.8,44.5z M116.9,37.2V35l-3.9,0.5c-2.6,0.3-4.2,0.9-4.2,3c0,1.6,1,2.6,3.3,2.6
		C115.4,41,116.7,39.1,116.9,37.2z"/>
	<path class="st1" d="M142.5,38.8c0,3.9-3.9,6-8.2,6c-4.6,0-7.7-2.5-8.2-6.1l3.8-0.6c0.6,1.7,2,3,4.4,3c1.8,0,3.5-0.7,3.5-2.5
		c0-1.1-0.7-2-3.9-2.9c-5.1-1.5-7.1-3.7-7.1-6.5c0-3.2,2.8-5.7,7.3-5.7c4.5,0,7.4,2.6,7.7,5.9l-3.6,0.7c-0.5-1.4-1.6-2.8-4-2.8
		c-1.9,0-2.8,0.9-2.8,2.2c0,1,0.5,1.9,3.1,2.7C139.4,33.6,142.5,35.2,142.5,38.8z"/>
	<path class="st1" d="M157.3,40.8v3.3c-1.3,0.5-2.5,0.7-3.4,0.7c-4.4,0-5.4-2.6-5.4-6.8V27.6h-3.5v-3.7h3.5v-5.1l4.6-0.5v5.6h4.5
		l0,3.7h-4.5v10.4C153.1,40.3,154,41.2,157.3,40.8z"/>
	<path class="st1" d="M192.4,36.7c0,4.7-2.6,7.8-9.9,7.8h-9.8V15.6h9.6c6.2,0,8.9,2.7,8.9,7.2c0,3.3-1.4,5.3-4.3,6.3v0.2
		C190.3,30.3,192.4,32.7,192.4,36.7z M177.5,19.8v7.7h4.9c2.9,0,4.2-1.2,4.2-4c0-2.9-1.3-3.8-4.2-3.8H177.5z M187.7,35.9
		c0-3.7-2.3-4.7-5.1-4.7h-5v9h5C186.1,40.2,187.7,39.1,187.7,35.9z"/>
	<path class="st1" d="M213.6,44.5h-3.4c-0.9,0-1.5-0.8-1.5-1.8v-1.5c-1.2,2-3.3,3.6-6.4,3.6c-3.3,0-6.1-1.9-6.1-6.1
		c0-4.5,3.3-5.9,8.2-6.5l4.4-0.5v-0.8c0-2.5-1.1-3.5-3.9-3.5c-2.6,0-4.6,0.9-5.9,1.7l-1.2-3.2c2.3-1.4,4.7-2.2,7.8-2.2
		c5.2,0,7.7,2.3,7.7,7.5v11.6C213.3,43.5,213.3,44,213.6,44.5z M208.7,37.2V35l-3.9,0.5c-2.6,0.3-4.2,0.9-4.2,3c0,1.6,1,2.6,3.3,2.6
		C207.2,41,208.5,39.1,208.7,37.2z"/>
	<path class="st1" d="M236.3,23.8l-8.1,20.6c-1.7,4.3-3.7,8.7-9.6,8.3v-3.9c2.5,0.4,4.3-1.7,5.4-4.4l0.3-0.9l-7.7-19.7h4.7l5.2,14.1
		l5.2-14.1H236.3z"/>
	<path class="st1" d="M272.2,30c0,10.5-4.3,14.5-12.9,14.5h-8V15.6h8C267.9,15.6,272.2,19.5,272.2,30z M267.5,30
		c0-8.2-2.4-10.3-7.7-10.3H256v20.6h3.8C265.1,40.3,267.5,38.2,267.5,30z"/>
	<path class="st1" d="M296.3,36.3c0,5.1-4.5,8.4-10.1,8.4c-4.5,0-8.8-2.4-10.6-6.2l3.4-2.2c1.8,2.8,4.6,4.2,7.2,4.2
		c2.1,0,5.3-0.9,5.3-4c0-2.6-2.3-3.8-6.1-5.2c-5.5-1.9-8.6-4.3-8.6-8.3c0-4.6,3.9-7.8,9.1-7.8c5.2,0,8.5,3,9.9,5.5l-3.2,2.3
		c-2.1-2.6-4.2-3.6-6.6-3.6c-2.3,0-4.5,1-4.5,3.5c0,1.8,1.1,2.9,4.8,4.3C291.4,29.3,296.3,31,296.3,36.3z"/>
	<path class="st1" d="M316.4,38.4h-10.8l-1.7,6.1h-4.9l8.6-28.9h6.7l8.6,28.9h-4.9L316.4,38.4z M315.3,34.3l-3.9-13.7h-0.6
		l-3.9,13.7H315.3z"/>
</g>
</svg>
